<?xml version="1.0" encoding="utf-8"?>
<!-- Generator: Adobe Illustrator 24.1.0, SVG Export Plug-In . SVG Version: 6.00 Build 0)  -->
<svg version="1.1" id="图层_1" xmlns="http://www.w3.org/2000/svg" xmlns:xlink="http://www.w3.org/1999/xlink" x="0px" y="0px"
	 viewBox="0 0 739.5 768.3" style="enable-background:new 0 0 739.5 768.3;" xml:space="preserve">
<style type="text/css">
	.st0{clip-path:url(#SVGID_2_);}
	.st1{fill:#8A8A8A;}
</style>
<g>
	<defs>
		<rect id="SVGID_1_" x="137.6" y="281.1" width="464.4" height="483.2"/>
	</defs>
	<clipPath id="SVGID_2_">
		<use xlink:href="#SVGID_1_"  style="overflow:visible;"/>
	</clipPath>
	<g class="st0">
		<path class="st1" d="M601.7,710.1c-0.1,29.6-24,53.5-53.6,53.6h-357c-29.5-0.1-53.5-24-53.6-53.6c0.1-95.1,63-178.8,154.4-205.4
			c-54.2-42.8-63.5-121.5-20.6-175.7s121.5-63.5,175.7-20.6c30.1,23.7,47.6,59.9,47.6,98.2c-0.2,38.1-17.6,74.2-47.3,98.1
			C538.6,531.4,601.5,615,601.7,710.1z M548.1,728c9.9,0,17.8-8,17.9-17.8c-0.2-98.5-80-178.3-178.5-178.5h-35.7
			c-98.5,0.2-178.3,80-178.5,178.5c0,9.9,8,17.8,17.8,17.8L548.1,728z M458.9,406.7c0-49.3-40-89.3-89.3-89.3
			c-49.3,0-89.3,40-89.3,89.3c0,49.3,40,89.3,89.3,89.3c0,0,0,0,0,0C418.9,495.9,458.9,456,458.9,406.7z"/>
		<path class="st1" d="M566,710.1c0,9.9-8,17.8-17.9,17.8h-357c-9.9,0-17.8-8-17.8-17.8c0.2-98.5,80-178.3,178.5-178.5h35.7
			C485.9,531.9,565.7,611.6,566,710.1z"/>
		<path class="st1" d="M369.6,317.4c49.3,0,89.3,40,89.3,89.3c0,49.3-40,89.3-89.3,89.3c-49.3,0-89.3-40-89.3-89.3
			C280.3,357.4,320.3,317.4,369.6,317.4C369.6,317.4,369.6,317.4,369.6,317.4z"/>
	</g>
</g>
</svg>
