<?xml version="1.0" encoding="utf-8"?>
<!-- Generator: Adobe Illustrator 24.1.0, SVG Export Plug-In . SVG Version: 6.00 Build 0)  -->
<svg version="1.1" id="图层_1" xmlns="http://www.w3.org/2000/svg" xmlns:xlink="http://www.w3.org/1999/xlink" x="0px" y="0px"
	 viewBox="0 0 200 200" style="enable-background:new 0 0 200 200;" xml:space="preserve">
<style type="text/css">
	.st0{fill:#333333;}
</style>
<path class="st0" d="M153.5,201H46.2c-2.2,0-4.4-1.1-5.8-2.8c-1.4-1.9-1.9-4.2-1.4-6.4c5.5-28.3,28.6-49.4,56.3-51.6
	c9.3,0,19.3,1.2,29.4,5.3c2.9,1.2,3.9,1.9,5.5,2.8c16.1,9.2,27.2,25,30.8,43.5c0.6,2.2,0,4.4-1.7,6.4C158,199.9,155.7,201,153.5,201
	L153.5,201z"/>
<path class="st0" d="M46.3,196.5c-0.9,0-1.7-0.3-2.2-1c-0.1-0.1-0.1-0.1-0.1-0.2c-0.7-0.7-0.8-1.9-0.6-2.6
	c5.1-26.3,26.7-46.1,52.5-48h2.1c12.4,0,24.3,3.9,30.2,7.6c15.3,9.2,25.4,23.5,28.6,40.4c0.1,1-0.1,1.9-0.8,2.8
	c-0.5,0.6-1.3,1-2.2,1H46.3z"/>
<path class="st0" d="M97.9,146.5c12.1,0,23.6,3.7,29.3,7.3h0.1c14.8,8.8,24.7,22.7,27.7,39.2c0.1,0.3,0.1,0.8-0.5,1.5
	c-0.1,0.1-0.4,0.3-0.8,0.3H46.3c-0.4,0-0.8-0.1-0.8-0.3c-0.1-0.1-0.2-0.3-0.3-0.3c-0.1-0.1-0.3-0.6-0.1-1
	c5-25.6,25.9-44.7,50.9-46.6C96.5,146.5,97.2,146.5,97.9,146.5 M97.9,143c-0.7,0-1.5,0-2.1,0.1C69.1,145,47,165.3,41.7,192.4
	c-0.3,1.4,0,3.1,1.1,4.2c0.8,1.1,2.2,1.7,3.6,1.7h107.3c1.4,0,2.8-0.6,3.6-1.7c0.8-1.1,1.4-2.5,1.1-4.2
	c-3.3-17.8-13.9-32.3-29.4-41.6C123.2,147.2,111.1,143,97.9,143L97.9,143z M100,142.8c-17.5,0-31.9-14.4-31.9-31.9S82.5,79,100,79
	s31.9,14.4,31.9,31.9S117.5,142.8,100,142.8z"/>
<path class="st0" d="M100,138.3c-15.1,0-27.4-12.3-27.4-27.4S84.9,83.5,100,83.5s27.4,12.3,27.4,27.4S115.1,138.3,100,138.3z"/>
<path class="st0" d="M100,85.2c14.1,0,25.7,11.5,25.7,25.7s-11.5,25.7-25.7,25.7S74.3,125,74.3,110.9S85.9,85.2,100,85.2 M100,81.8
	c-16.1,0-29.1,13-29.1,29.1S83.9,140,100,140s29.1-13,29.1-29.1S116.1,81.8,100,81.8z"/>
</svg>
