<?xml version="1.0" encoding="utf-8"?>
<!-- Generator: Adobe Illustrator 24.1.0, SVG Export Plug-In . SVG Version: 6.00 Build 0)  -->
<svg version="1.1" id="图层_1" xmlns="http://www.w3.org/2000/svg" xmlns:xlink="http://www.w3.org/1999/xlink" x="0px" y="0px"
	 viewBox="0 0 200 200" style="enable-background:new 0 0 200 200;" xml:space="preserve">
<style type="text/css">
	.st0{fill:#FCA62F;}
</style>
<path class="st0" d="M100,200c-34.7,0-69.7-9.4-69.7-30.5c0-16.5,24-26.7,46.2-29.2l1.2-0.1L47,90.7c-1-1.8-1.9-3.7-2.8-5.6
	l-0.8-1.6l-0.1-0.7c-2.7-7-4.1-14.4-4.1-21.9c0-33.6,27.3-61,60.8-61s60.8,27.4,60.8,61c0,7.5-1.4,14.8-4.1,21.9l-0.4,1.1h0
	l-0.3,0.6c-0.9,2.1-1.9,4.1-2.9,6l-53.1,88.4l-12.6-20.6l-0.5,0c-20.4,1.7-33.4,7.4-36.8,10.5l-0.6,0.6l0.6,0.6
	c4.5,4.1,21.5,10.7,48.6,10.9h2.4l0,0c27-0.2,44.2-6.7,48.7-10.9l0.6-0.6l-0.6-0.6c-2.5-2.2-11.5-6.6-25.5-9.1l10.7-17.2
	c22.3,5,34.6,14.6,34.6,26.9C169.7,190.6,134.7,200,100,200L100,200L100,200z M100,28.1c-14.3,0-25.9,11.7-25.9,26
	c0,14.3,11.6,26,25.9,26c14.3,0,25.9-11.7,25.9-26C125.9,39.7,114.3,28.1,100,28.1L100,28.1L100,28.1z"/>
</svg>
