<svg id="图层_1" data-name="图层 1" xmlns="http://www.w3.org/2000/svg" xmlns:xlink="http://www.w3.org/1999/xlink" viewBox="0 0 739.55 768.34"><defs><style>.cls-1{fill:none;}.cls-2{clip-path:url(#clip-path);}.cls-3{fill:#fca62f;}</style><clipPath id="clip-path" transform="translate(-191.88 -834.62)"><rect class="cls-1" x="192" y="834" width="739.88" height="769.92"/></clipPath></defs><g class="cls-2"><path class="cls-3" d="M931.43,1517.63A85.55,85.55,0,0,1,846.1,1603H277.21a85.56,85.56,0,0,1-85.33-85.33,341.33,341.33,0,0,1,246-327.23,199.34,199.34,0,1,1,322.9-156.33,202.09,202.09,0,0,1-75.32,156.33A341.34,341.34,0,0,1,931.43,1517.63Zm-85.33,28.44a28.46,28.46,0,0,0,28.45-28.44c-.38-156.94-127.51-284.07-284.45-284.45H533.21c-156.93.38-284.06,127.51-284.44,284.45a28.44,28.44,0,0,0,28.44,28.44Zm-142.22-512a142.23,142.23,0,1,0-142.22,142.22A142.22,142.22,0,0,0,703.88,1034.07Z" transform="translate(-191.88 -834.62)"/><path class="cls-3" d="M874.55,1517.63a28.46,28.46,0,0,1-28.45,28.44H277.21a28.44,28.44,0,0,1-28.44-28.44c.38-156.94,127.51-284.07,284.44-284.45H590.1C747,1233.56,874.17,1360.69,874.55,1517.63Z" transform="translate(-191.88 -834.62)"/><path class="cls-3" d="M561.66,891.85a142.22,142.22,0,1,1-142.23,142.22A142.22,142.22,0,0,1,561.66,891.85Z" transform="translate(-191.88 -834.62)"/></g></svg>