<?xml version="1.0" standalone="no"?><!DOCTYPE svg PUBLIC "-//W3C//DTD SVG 1.1//EN" "http://www.w3.org/Graphics/SVG/1.1/DTD/svg11.dtd"><svg t="1620810959525" class="icon" viewBox="0 0 1024 1024" version="1.1" xmlns="http://www.w3.org/2000/svg" p-id="8084" xmlns:xlink="http://www.w3.org/1999/xlink" width="200" height="200"><defs><style type="text/css"></style></defs><path d="M512.492519 28.984695c24.447126 0 47.52359 9.169046 64.981541 25.817787L763.254634 232.097342V141.861463c0-9.931301 8.051138-17.982439 17.982439-17.982439h83.918049c9.931301 0 17.982439 8.051138 17.982439 17.982439v204.643154l128.422587 122.555317c16.101276 15.364995 16.643746 40.820137 1.211817 56.853479-15.430931 16.031344-40.992968 16.573815-57.096242 1.20782L896.124878 470.289733V474.536585H124.423493L69.322302 527.121233c-7.825358 7.468706-17.888531 11.179083-27.935719 11.179083-10.624624 0-21.228269-4.14695-29.159523-12.387902-15.43193-16.032343-14.88846-41.485487 1.212815-56.85248L447.516972 54.812472c17.440968-16.652738 40.518431-25.827778 64.975547-25.827777z" fill="#8a8a8a" p-id="8085"></path><path d="M886.634146 456.554146c20.689795 0 37.463415 16.77362 37.463415 37.463415v420.589268c0 20.689795-16.77362 37.463415-37.463415 37.463415l-251.773127 0.000999A39.876059 39.876059 0 0 0 637.377561 938.083902V721.29561c0-22.069448-17.891528-39.960976-39.960976-39.960976H427.582439c-22.069448 0-39.960976 17.891528-39.960976 39.960976v216.788292c0 4.921194 0.889132 9.633592 2.516543 13.987341L138.364878 952.070244c-20.689795 0-37.463415-16.77362-37.463415-37.463415v-420.589268c0-20.689795 16.77362-37.463415 37.463415-37.463415h748.269268z" fill="#8a8a8a" p-id="8086"></path></svg>